<?xml version="1.0" standalone="no"?>
<!DOCTYPE svg PUBLIC "-//W3C//DTD SVG 20010904//EN"
 "http://www.w3.org/TR/2001/REC-SVG-20010904/DTD/svg10.dtd">
<svg version="1.0" xmlns="http://www.w3.org/2000/svg"
 width="512.000000pt" height="512.000000pt" viewBox="0 0 512.000000 512.000000"
 preserveAspectRatio="xMidYMid meet">
<metadata>
Created by potrace 1.11, written by Peter Selinger 2001-2013
</metadata>
<g transform="translate(0.000000,512.000000) scale(0.100000,-0.100000)"
fill="#000000" stroke="none">
<path d="M254 4448 c-49 -39 -121 -98 -161 -130 l-72 -60 60 -74 c33 -40 63
-75 67 -78 4 -2 45 27 92 64 47 38 86 67 86 67 8 -10 14 -161 14 -383 l0 -271
85 -1 85 -2 0 470 0 470 -83 0 -83 0 -90 -72z"/>
<path d="M1024 4140 c0 -138 4 -211 11 -211 5 -1 927 -3 2048 -3 l2037 -2 0
213 0 213 -2048 0 -2048 0 0 -210z"/>
<path d="M222 3024 c-29 -7 -67 -21 -85 -30 -45 -23 -138 -95 -135 -105 2 -5
32 -42 66 -84 l64 -75 48 35 c63 46 107 63 153 60 51 -3 85 -35 82 -79 -5 -62
-43 -110 -230 -300 l-186 -188 3 -62 3 -61 330 -1 c182 0 335 1 340 3 10 3 12
144 2 160 -3 5 -78 8 -166 8 -89 0 -161 2 -161 6 0 3 46 51 103 105 154 147
203 225 212 335 9 115 -39 200 -141 250 -58 29 -77 33 -158 35 -54 2 -112 -3
-144 -12z"/>
<path d="M1025 2528 c1 -112 3 -208 4 -213 1 -7 666 -10 2046 -10 l2045 0 0
212 0 213 -2048 0 -2049 0 2 -202z"/>
<path d="M210 1535 c-74 -15 -178 -59 -186 -80 -4 -10 66 -135 92 -164 2 -2
18 3 36 12 64 30 93 38 141 39 90 0 128 -31 107 -86 -13 -36 -60 -54 -150 -58
l-75 -3 -3 -128 -3 -128 93 6 c109 7 141 -4 146 -49 10 -80 -30 -108 -152
-108 -58 0 -98 6 -141 21 -33 12 -72 26 -87 31 l-28 9 0 -104 0 -103 72 -22
c63 -19 90 -21 232 -18 153 3 164 4 218 31 108 53 158 145 144 265 -11 93 -54
141 -154 172 -35 11 -69 17 -75 14 -8 -5 -9 -4 -2 3 6 5 31 17 56 27 93 34
153 121 153 222 1 98 -54 161 -169 196 -49 15 -195 17 -265 3z"/>
<path d="M1024 900 c0 -136 4 -211 11 -213 5 -2 926 -3 2045 -2 l2035 0 3 213
2 212 -2048 0 -2049 0 1 -210z"/>
</g>
</svg>
